<mxfile host="app.diagrams.net" modified="2023-11-13T15:40:55.090Z" agent="Mozilla/5.0 (Windows NT 10.0; Win64; x64) AppleWebKit/537.36 (KHTML, like Gecko) Chrome/116.0.0.0 Safari/537.36 OPR/102.0.0.0" etag="DKtEIggaRs12ONeXjz5O" version="22.1.0" type="github">
  <diagram name="Page-1" id="74e2e168-ea6b-b213-b513-2b3c1d86103e">
    <mxGraphModel dx="1639" dy="946" grid="1" gridSize="10" guides="1" tooltips="1" connect="1" arrows="1" fold="1" page="1" pageScale="1" pageWidth="5000" pageHeight="5000" background="none" math="0" shadow="0">
      <root>
        <mxCell id="0" />
        <mxCell id="1" parent="0" />
        <mxCell id="L-TvMQkpFj6P-4dqpWRc-2" value="Start" style="rounded=1;whiteSpace=wrap;html=1;" vertex="1" parent="1">
          <mxGeometry x="2440" width="120" height="60" as="geometry" />
        </mxCell>
        <mxCell id="L-TvMQkpFj6P-4dqpWRc-3" value="Start GUI" style="rhombus;whiteSpace=wrap;html=1;rounded=1;" vertex="1" parent="1">
          <mxGeometry x="2460" y="120" width="80" height="80" as="geometry" />
        </mxCell>
        <mxCell id="L-TvMQkpFj6P-4dqpWRc-4" value="" style="shape=flexArrow;endArrow=classic;html=1;rounded=1;exitX=0.5;exitY=1;exitDx=0;exitDy=0;entryX=0.5;entryY=0;entryDx=0;entryDy=0;" edge="1" parent="1" source="L-TvMQkpFj6P-4dqpWRc-2" target="L-TvMQkpFj6P-4dqpWRc-3">
          <mxGeometry width="50" height="50" relative="1" as="geometry">
            <mxPoint x="2610" y="150" as="sourcePoint" />
            <mxPoint x="2660" y="100" as="targetPoint" />
          </mxGeometry>
        </mxCell>
        <mxCell id="L-TvMQkpFj6P-4dqpWRc-43" style="edgeStyle=orthogonalEdgeStyle;rounded=1;orthogonalLoop=1;jettySize=auto;html=1;exitX=0.5;exitY=1;exitDx=0;exitDy=0;shape=flexArrow;" edge="1" parent="1" source="L-TvMQkpFj6P-4dqpWRc-5" target="L-TvMQkpFj6P-4dqpWRc-42">
          <mxGeometry relative="1" as="geometry" />
        </mxCell>
        <mxCell id="L-TvMQkpFj6P-4dqpWRc-5" value="No Event /&lt;br&gt;Insta farm" style="rounded=1;whiteSpace=wrap;html=1;" vertex="1" parent="1">
          <mxGeometry x="1880" y="480" width="120" height="60" as="geometry" />
        </mxCell>
        <mxCell id="L-TvMQkpFj6P-4dqpWRc-6" value="Event /&amp;nbsp;&lt;br&gt;Insta farm" style="rounded=1;whiteSpace=wrap;html=1;" vertex="1" parent="1">
          <mxGeometry x="2300" y="480" width="120" height="60" as="geometry" />
        </mxCell>
        <mxCell id="L-TvMQkpFj6P-4dqpWRc-14" value="GUI py" style="rounded=1;whiteSpace=wrap;html=1;" vertex="1" parent="1">
          <mxGeometry x="2440" y="240" width="120" height="60" as="geometry" />
        </mxCell>
        <mxCell id="L-TvMQkpFj6P-4dqpWRc-15" value="" style="shape=flexArrow;endArrow=classic;html=1;rounded=1;exitX=0.5;exitY=1;exitDx=0;exitDy=0;entryX=0.5;entryY=0;entryDx=0;entryDy=0;" edge="1" parent="1" source="L-TvMQkpFj6P-4dqpWRc-3" target="L-TvMQkpFj6P-4dqpWRc-14">
          <mxGeometry width="50" height="50" relative="1" as="geometry">
            <mxPoint x="2610" y="290" as="sourcePoint" />
            <mxPoint x="2660" y="240" as="targetPoint" />
          </mxGeometry>
        </mxCell>
        <mxCell id="L-TvMQkpFj6P-4dqpWRc-16" value="Select Mode" style="shape=hexagon;perimeter=hexagonPerimeter2;whiteSpace=wrap;html=1;fixedSize=1;rounded=1;" vertex="1" parent="1">
          <mxGeometry x="2300" y="360" width="120" height="80" as="geometry" />
        </mxCell>
        <mxCell id="L-TvMQkpFj6P-4dqpWRc-18" value="" style="shape=flexArrow;endArrow=classic;html=1;rounded=1;exitX=0;exitY=0.5;exitDx=0;exitDy=0;entryX=0.5;entryY=0;entryDx=0;entryDy=0;" edge="1" parent="1" source="L-TvMQkpFj6P-4dqpWRc-14" target="L-TvMQkpFj6P-4dqpWRc-16">
          <mxGeometry width="50" height="50" relative="1" as="geometry">
            <mxPoint x="2610" y="290" as="sourcePoint" />
            <mxPoint x="2660" y="240" as="targetPoint" />
            <Array as="points">
              <mxPoint x="2360" y="270" />
            </Array>
          </mxGeometry>
        </mxCell>
        <mxCell id="L-TvMQkpFj6P-4dqpWRc-20" value="" style="shape=flexArrow;endArrow=classic;html=1;rounded=1;exitX=0;exitY=0.5;exitDx=0;exitDy=0;entryX=0.5;entryY=0;entryDx=0;entryDy=0;" edge="1" parent="1" source="L-TvMQkpFj6P-4dqpWRc-16" target="L-TvMQkpFj6P-4dqpWRc-5">
          <mxGeometry width="50" height="50" relative="1" as="geometry">
            <mxPoint x="2300" y="440" as="sourcePoint" />
            <mxPoint x="2350" y="390" as="targetPoint" />
            <Array as="points">
              <mxPoint x="1940" y="400" />
            </Array>
          </mxGeometry>
        </mxCell>
        <mxCell id="L-TvMQkpFj6P-4dqpWRc-21" value="" style="shape=flexArrow;endArrow=classic;html=1;rounded=1;exitX=0.5;exitY=1;exitDx=0;exitDy=0;entryX=0.5;entryY=0;entryDx=0;entryDy=0;" edge="1" parent="1" source="L-TvMQkpFj6P-4dqpWRc-16" target="L-TvMQkpFj6P-4dqpWRc-6">
          <mxGeometry width="50" height="50" relative="1" as="geometry">
            <mxPoint x="2470" y="310" as="sourcePoint" />
            <mxPoint x="2520" y="260" as="targetPoint" />
          </mxGeometry>
        </mxCell>
        <mxCell id="L-TvMQkpFj6P-4dqpWRc-22" value="Select preferred Insta" style="shape=hexagon;perimeter=hexagonPerimeter2;whiteSpace=wrap;html=1;fixedSize=1;rounded=1;" vertex="1" parent="1">
          <mxGeometry x="3040" y="360" width="120" height="80" as="geometry" />
        </mxCell>
        <mxCell id="L-TvMQkpFj6P-4dqpWRc-23" value="" style="shape=flexArrow;endArrow=classic;html=1;rounded=1;exitX=1;exitY=0.5;exitDx=0;exitDy=0;entryX=0.5;entryY=0;entryDx=0;entryDy=0;" edge="1" parent="1" source="L-TvMQkpFj6P-4dqpWRc-14" target="L-TvMQkpFj6P-4dqpWRc-22">
          <mxGeometry width="50" height="50" relative="1" as="geometry">
            <mxPoint x="2470" y="380" as="sourcePoint" />
            <mxPoint x="2520" y="330" as="targetPoint" />
            <Array as="points">
              <mxPoint x="3100" y="270" />
            </Array>
          </mxGeometry>
        </mxCell>
        <mxCell id="L-TvMQkpFj6P-4dqpWRc-58" style="edgeStyle=orthogonalEdgeStyle;shape=flexArrow;rounded=1;orthogonalLoop=1;jettySize=auto;html=1;exitX=0.5;exitY=1;exitDx=0;exitDy=0;entryX=0.5;entryY=0;entryDx=0;entryDy=0;" edge="1" parent="1" source="L-TvMQkpFj6P-4dqpWRc-25" target="L-TvMQkpFj6P-4dqpWRc-57">
          <mxGeometry relative="1" as="geometry" />
        </mxCell>
        <mxCell id="L-TvMQkpFj6P-4dqpWRc-25" value="Set PInsta" style="rhombus;whiteSpace=wrap;html=1;rounded=1;" vertex="1" parent="1">
          <mxGeometry x="3060" y="480" width="80" height="80" as="geometry" />
        </mxCell>
        <mxCell id="L-TvMQkpFj6P-4dqpWRc-26" value="" style="shape=flexArrow;endArrow=classic;html=1;rounded=1;exitX=0.5;exitY=1;exitDx=0;exitDy=0;entryX=0.5;entryY=0;entryDx=0;entryDy=0;" edge="1" parent="1" source="L-TvMQkpFj6P-4dqpWRc-22" target="L-TvMQkpFj6P-4dqpWRc-25">
          <mxGeometry width="50" height="50" relative="1" as="geometry">
            <mxPoint x="2930" y="380" as="sourcePoint" />
            <mxPoint x="2980" y="330" as="targetPoint" />
          </mxGeometry>
        </mxCell>
        <mxCell id="L-TvMQkpFj6P-4dqpWRc-27" value="GoTo&lt;br&gt;Expert&lt;br&gt;Maps" style="rhombus;whiteSpace=wrap;html=1;rounded=1;" vertex="1" parent="1">
          <mxGeometry x="2320" y="600" width="80" height="80" as="geometry" />
        </mxCell>
        <mxCell id="L-TvMQkpFj6P-4dqpWRc-28" value="" style="shape=flexArrow;endArrow=classic;html=1;rounded=1;exitX=0.5;exitY=1;exitDx=0;exitDy=0;" edge="1" parent="1" source="L-TvMQkpFj6P-4dqpWRc-6" target="L-TvMQkpFj6P-4dqpWRc-27">
          <mxGeometry width="50" height="50" relative="1" as="geometry">
            <mxPoint x="2380" y="590" as="sourcePoint" />
            <mxPoint x="2430" y="540" as="targetPoint" />
          </mxGeometry>
        </mxCell>
        <mxCell id="L-TvMQkpFj6P-4dqpWRc-32" style="edgeStyle=orthogonalEdgeStyle;rounded=1;orthogonalLoop=1;jettySize=auto;html=1;exitX=1;exitY=0.5;exitDx=0;exitDy=0;shape=flexArrow;" edge="1" parent="1" source="L-TvMQkpFj6P-4dqpWRc-29" target="L-TvMQkpFj6P-4dqpWRc-31">
          <mxGeometry relative="1" as="geometry" />
        </mxCell>
        <mxCell id="L-TvMQkpFj6P-4dqpWRc-36" style="edgeStyle=orthogonalEdgeStyle;rounded=1;orthogonalLoop=1;jettySize=auto;html=1;exitX=0.5;exitY=1;exitDx=0;exitDy=0;entryX=0.5;entryY=0;entryDx=0;entryDy=0;shape=flexArrow;" edge="1" parent="1" source="L-TvMQkpFj6P-4dqpWRc-29" target="L-TvMQkpFj6P-4dqpWRc-35">
          <mxGeometry relative="1" as="geometry" />
        </mxCell>
        <mxCell id="L-TvMQkpFj6P-4dqpWRc-29" value="Find Event Map" style="shape=process;whiteSpace=wrap;html=1;backgroundOutline=1;rounded=1;" vertex="1" parent="1">
          <mxGeometry x="2300" y="720" width="120" height="60" as="geometry" />
        </mxCell>
        <mxCell id="L-TvMQkpFj6P-4dqpWRc-30" value="" style="shape=flexArrow;endArrow=classic;html=1;rounded=1;exitX=0.5;exitY=1;exitDx=0;exitDy=0;" edge="1" parent="1" source="L-TvMQkpFj6P-4dqpWRc-27" target="L-TvMQkpFj6P-4dqpWRc-29">
          <mxGeometry width="50" height="50" relative="1" as="geometry">
            <mxPoint x="2390" y="650" as="sourcePoint" />
            <mxPoint x="2440" y="600" as="targetPoint" />
          </mxGeometry>
        </mxCell>
        <mxCell id="L-TvMQkpFj6P-4dqpWRc-37" style="edgeStyle=orthogonalEdgeStyle;rounded=1;orthogonalLoop=1;jettySize=auto;html=1;exitX=0.5;exitY=1;exitDx=0;exitDy=0;entryX=1;entryY=0.5;entryDx=0;entryDy=0;shape=flexArrow;" edge="1" parent="1" source="L-TvMQkpFj6P-4dqpWRc-31" target="L-TvMQkpFj6P-4dqpWRc-35">
          <mxGeometry relative="1" as="geometry" />
        </mxCell>
        <mxCell id="L-TvMQkpFj6P-4dqpWRc-31" value="Image: Event" style="shape=parallelogram;perimeter=parallelogramPerimeter;whiteSpace=wrap;html=1;fixedSize=1;rounded=1;" vertex="1" parent="1">
          <mxGeometry x="2490" y="720" width="120" height="60" as="geometry" />
        </mxCell>
        <mxCell id="L-TvMQkpFj6P-4dqpWRc-39" style="edgeStyle=orthogonalEdgeStyle;rounded=1;orthogonalLoop=1;jettySize=auto;html=1;exitX=0.5;exitY=1;exitDx=0;exitDy=0;entryX=0.5;entryY=0;entryDx=0;entryDy=0;shape=flexArrow;" edge="1" parent="1" source="L-TvMQkpFj6P-4dqpWRc-35" target="L-TvMQkpFj6P-4dqpWRc-38">
          <mxGeometry relative="1" as="geometry" />
        </mxCell>
        <mxCell id="L-TvMQkpFj6P-4dqpWRc-35" value="Select Map" style="shape=process;whiteSpace=wrap;html=1;backgroundOutline=1;rounded=1;" vertex="1" parent="1">
          <mxGeometry x="2300" y="820" width="120" height="60" as="geometry" />
        </mxCell>
        <mxCell id="L-TvMQkpFj6P-4dqpWRc-47" style="edgeStyle=orthogonalEdgeStyle;rounded=1;orthogonalLoop=1;jettySize=auto;html=1;exitX=0.5;exitY=1;exitDx=0;exitDy=0;shape=flexArrow;" edge="1" parent="1" source="L-TvMQkpFj6P-4dqpWRc-38">
          <mxGeometry relative="1" as="geometry">
            <mxPoint x="2140" y="1110" as="targetPoint" />
          </mxGeometry>
        </mxCell>
        <mxCell id="L-TvMQkpFj6P-4dqpWRc-38" value="Select Game Mode" style="shape=process;whiteSpace=wrap;html=1;backgroundOutline=1;rounded=1;" vertex="1" parent="1">
          <mxGeometry x="2300" y="920" width="120" height="60" as="geometry" />
        </mxCell>
        <mxCell id="L-TvMQkpFj6P-4dqpWRc-49" style="edgeStyle=orthogonalEdgeStyle;rounded=1;orthogonalLoop=1;jettySize=auto;html=1;exitX=0;exitY=0;exitDx=120;exitDy=50;exitPerimeter=0;entryX=0;entryY=0.5;entryDx=0;entryDy=0;shape=flexArrow;" edge="1" parent="1" source="L-TvMQkpFj6P-4dqpWRc-40" target="L-TvMQkpFj6P-4dqpWRc-48">
          <mxGeometry relative="1" as="geometry" />
        </mxCell>
        <mxCell id="L-TvMQkpFj6P-4dqpWRc-40" value="Play Game" style="shape=cube;whiteSpace=wrap;html=1;boundedLbl=1;backgroundOutline=1;darkOpacity=0.05;darkOpacity2=0.1;rounded=1;" vertex="1" parent="1">
          <mxGeometry x="2090" y="1110" width="120" height="80" as="geometry" />
        </mxCell>
        <mxCell id="L-TvMQkpFj6P-4dqpWRc-45" style="edgeStyle=orthogonalEdgeStyle;rounded=1;orthogonalLoop=1;jettySize=auto;html=1;exitX=0.5;exitY=1;exitDx=0;exitDy=0;entryX=0.5;entryY=0;entryDx=0;entryDy=0;shape=flexArrow;" edge="1" parent="1" source="L-TvMQkpFj6P-4dqpWRc-42" target="L-TvMQkpFj6P-4dqpWRc-44">
          <mxGeometry relative="1" as="geometry" />
        </mxCell>
        <mxCell id="L-TvMQkpFj6P-4dqpWRc-42" value="GoTo&lt;br&gt;Logs" style="rhombus;whiteSpace=wrap;html=1;rounded=1;" vertex="1" parent="1">
          <mxGeometry x="1900" y="600" width="80" height="80" as="geometry" />
        </mxCell>
        <mxCell id="L-TvMQkpFj6P-4dqpWRc-44" value="Start Easy" style="shape=process;whiteSpace=wrap;html=1;backgroundOutline=1;rounded=1;" vertex="1" parent="1">
          <mxGeometry x="1880" y="720" width="120" height="60" as="geometry" />
        </mxCell>
        <mxCell id="L-TvMQkpFj6P-4dqpWRc-46" style="edgeStyle=orthogonalEdgeStyle;rounded=1;orthogonalLoop=1;jettySize=auto;html=1;exitX=0.5;exitY=1;exitDx=0;exitDy=0;entryX=0;entryY=0;entryDx=50;entryDy=0;entryPerimeter=0;shape=flexArrow;" edge="1" parent="1" source="L-TvMQkpFj6P-4dqpWRc-44" target="L-TvMQkpFj6P-4dqpWRc-40">
          <mxGeometry relative="1" as="geometry" />
        </mxCell>
        <mxCell id="L-TvMQkpFj6P-4dqpWRc-52" style="edgeStyle=orthogonalEdgeStyle;rounded=1;orthogonalLoop=1;jettySize=auto;html=1;exitX=0.5;exitY=1;exitDx=0;exitDy=0;entryX=0.5;entryY=0;entryDx=0;entryDy=0;shape=flexArrow;" edge="1" parent="1" source="L-TvMQkpFj6P-4dqpWRc-48" target="L-TvMQkpFj6P-4dqpWRc-50">
          <mxGeometry relative="1" as="geometry" />
        </mxCell>
        <mxCell id="L-TvMQkpFj6P-4dqpWRc-53" style="edgeStyle=orthogonalEdgeStyle;rounded=1;orthogonalLoop=1;jettySize=auto;html=1;exitX=1;exitY=0.5;exitDx=0;exitDy=0;shape=flexArrow;" edge="1" parent="1" source="L-TvMQkpFj6P-4dqpWRc-48" target="L-TvMQkpFj6P-4dqpWRc-51">
          <mxGeometry relative="1" as="geometry" />
        </mxCell>
        <mxCell id="L-TvMQkpFj6P-4dqpWRc-48" value="Map finished" style="rhombus;whiteSpace=wrap;html=1;rounded=1;" vertex="1" parent="1">
          <mxGeometry x="2690" y="1120" width="80" height="80" as="geometry" />
        </mxCell>
        <mxCell id="L-TvMQkpFj6P-4dqpWRc-55" style="edgeStyle=orthogonalEdgeStyle;rounded=1;orthogonalLoop=1;jettySize=auto;html=1;exitX=0;exitY=0.5;exitDx=0;exitDy=0;entryX=1;entryY=0.5;entryDx=0;entryDy=0;shape=flexArrow;" edge="1" parent="1" source="L-TvMQkpFj6P-4dqpWRc-50" target="L-TvMQkpFj6P-4dqpWRc-16">
          <mxGeometry relative="1" as="geometry">
            <Array as="points">
              <mxPoint x="2620" y="1280" />
              <mxPoint x="2620" y="400" />
            </Array>
          </mxGeometry>
        </mxCell>
        <mxCell id="L-TvMQkpFj6P-4dqpWRc-56" value="Select again as previous" style="edgeLabel;html=1;align=center;verticalAlign=middle;resizable=0;points=[];" vertex="1" connectable="0" parent="L-TvMQkpFj6P-4dqpWRc-55">
          <mxGeometry x="0.2329" y="-3" relative="1" as="geometry">
            <mxPoint x="-103" y="-254" as="offset" />
          </mxGeometry>
        </mxCell>
        <mxCell id="L-TvMQkpFj6P-4dqpWRc-50" value="No Reward" style="rounded=1;whiteSpace=wrap;html=1;" vertex="1" parent="1">
          <mxGeometry x="2670" y="1250" width="120" height="60" as="geometry" />
        </mxCell>
        <mxCell id="L-TvMQkpFj6P-4dqpWRc-67" style="edgeStyle=orthogonalEdgeStyle;shape=flexArrow;rounded=1;orthogonalLoop=1;jettySize=auto;html=1;exitX=0.5;exitY=1;exitDx=0;exitDy=0;" edge="1" parent="1" source="L-TvMQkpFj6P-4dqpWRc-51" target="L-TvMQkpFj6P-4dqpWRc-54">
          <mxGeometry relative="1" as="geometry" />
        </mxCell>
        <mxCell id="L-TvMQkpFj6P-4dqpWRc-51" value="Reward" style="rounded=1;whiteSpace=wrap;html=1;" vertex="1" parent="1">
          <mxGeometry x="2850" y="1250" width="120" height="60" as="geometry" />
        </mxCell>
        <mxCell id="L-TvMQkpFj6P-4dqpWRc-60" style="edgeStyle=orthogonalEdgeStyle;shape=flexArrow;rounded=1;orthogonalLoop=1;jettySize=auto;html=1;exitX=1;exitY=0.5;exitDx=0;exitDy=0;entryX=0.5;entryY=0;entryDx=0;entryDy=0;" edge="1" parent="1" source="L-TvMQkpFj6P-4dqpWRc-54" target="L-TvMQkpFj6P-4dqpWRc-57">
          <mxGeometry relative="1" as="geometry" />
        </mxCell>
        <mxCell id="L-TvMQkpFj6P-4dqpWRc-66" style="edgeStyle=orthogonalEdgeStyle;shape=flexArrow;rounded=1;orthogonalLoop=1;jettySize=auto;html=1;exitX=0.5;exitY=1;exitDx=0;exitDy=0;" edge="1" parent="1" source="L-TvMQkpFj6P-4dqpWRc-54" target="L-TvMQkpFj6P-4dqpWRc-64">
          <mxGeometry relative="1" as="geometry" />
        </mxCell>
        <mxCell id="L-TvMQkpFj6P-4dqpWRc-54" value="If&amp;nbsp;&lt;br&gt;PInsta" style="rhombus;whiteSpace=wrap;html=1;rounded=1;" vertex="1" parent="1">
          <mxGeometry x="2870" y="1380" width="80" height="80" as="geometry" />
        </mxCell>
        <mxCell id="L-TvMQkpFj6P-4dqpWRc-65" style="edgeStyle=orthogonalEdgeStyle;shape=flexArrow;rounded=1;orthogonalLoop=1;jettySize=auto;html=1;exitX=0.5;exitY=1;exitDx=0;exitDy=0;entryX=1;entryY=0.5;entryDx=0;entryDy=0;" edge="1" parent="1" source="L-TvMQkpFj6P-4dqpWRc-57" target="L-TvMQkpFj6P-4dqpWRc-64">
          <mxGeometry relative="1" as="geometry" />
        </mxCell>
        <mxCell id="L-TvMQkpFj6P-4dqpWRc-57" value="Select PInsta" style="rounded=1;whiteSpace=wrap;html=1;" vertex="1" parent="1">
          <mxGeometry x="3040" y="1490" width="120" height="60" as="geometry" />
        </mxCell>
        <mxCell id="L-TvMQkpFj6P-4dqpWRc-61" value="True" style="text;html=1;strokeColor=none;fillColor=none;align=center;verticalAlign=middle;whiteSpace=wrap;rounded=0;" vertex="1" parent="1">
          <mxGeometry x="2980" y="1380" width="60" height="30" as="geometry" />
        </mxCell>
        <mxCell id="L-TvMQkpFj6P-4dqpWRc-68" style="edgeStyle=orthogonalEdgeStyle;shape=flexArrow;rounded=1;orthogonalLoop=1;jettySize=auto;html=1;exitX=0;exitY=0.5;exitDx=0;exitDy=0;entryX=1;entryY=0.5;entryDx=0;entryDy=0;" edge="1" parent="1" source="L-TvMQkpFj6P-4dqpWRc-64" target="L-TvMQkpFj6P-4dqpWRc-16">
          <mxGeometry relative="1" as="geometry">
            <mxPoint x="2750" y="620" as="targetPoint" />
            <Array as="points">
              <mxPoint x="2620" y="1620" />
              <mxPoint x="2620" y="400" />
            </Array>
          </mxGeometry>
        </mxCell>
        <mxCell id="L-TvMQkpFj6P-4dqpWRc-64" value="Collect Instas" style="shape=process;whiteSpace=wrap;html=1;backgroundOutline=1;rounded=1;" vertex="1" parent="1">
          <mxGeometry x="2850" y="1590" width="120" height="60" as="geometry" />
        </mxCell>
        <mxCell id="L-TvMQkpFj6P-4dqpWRc-69" value="Play Game" style="swimlane;whiteSpace=wrap;html=1;rounded=1;" vertex="1" parent="1">
          <mxGeometry x="660" width="1160" height="1670" as="geometry" />
        </mxCell>
        <mxCell id="L-TvMQkpFj6P-4dqpWRc-70" value="Place" style="swimlane;fontStyle=0;childLayout=stackLayout;horizontal=1;startSize=30;horizontalStack=0;resizeParent=1;resizeParentMax=0;resizeLast=0;collapsible=1;marginBottom=0;whiteSpace=wrap;html=1;rounded=1;" vertex="1" parent="L-TvMQkpFj6P-4dqpWRc-69">
          <mxGeometry x="10" y="30" width="140" height="540" as="geometry" />
        </mxCell>
        <mxCell id="L-TvMQkpFj6P-4dqpWRc-72" value="place" style="text;strokeColor=none;fillColor=none;align=left;verticalAlign=middle;spacingLeft=4;spacingRight=4;overflow=hidden;points=[[0,0.5],[1,0.5]];portConstraint=eastwest;rotatable=0;whiteSpace=wrap;html=1;" vertex="1" parent="L-TvMQkpFj6P-4dqpWRc-70">
          <mxGeometry y="30" width="140" height="30" as="geometry" />
        </mxCell>
        <mxCell id="L-TvMQkpFj6P-4dqpWRc-73" value="place_cost" style="text;strokeColor=none;fillColor=none;align=left;verticalAlign=middle;spacingLeft=4;spacingRight=4;overflow=hidden;points=[[0,0.5],[1,0.5]];portConstraint=eastwest;rotatable=0;whiteSpace=wrap;html=1;" vertex="1" parent="L-TvMQkpFj6P-4dqpWRc-70">
          <mxGeometry y="60" width="140" height="30" as="geometry" />
        </mxCell>
        <mxCell id="L-TvMQkpFj6P-4dqpWRc-75" value="place_ability" style="text;strokeColor=none;fillColor=none;align=left;verticalAlign=middle;spacingLeft=4;spacingRight=4;overflow=hidden;points=[[0,0.5],[1,0.5]];portConstraint=eastwest;rotatable=0;whiteSpace=wrap;html=1;" vertex="1" parent="L-TvMQkpFj6P-4dqpWRc-70">
          <mxGeometry y="90" width="140" height="30" as="geometry" />
        </mxCell>
        <mxCell id="L-TvMQkpFj6P-4dqpWRc-76" style="text;strokeColor=none;fillColor=none;align=left;verticalAlign=middle;spacingLeft=4;spacingRight=4;overflow=hidden;points=[[0,0.5],[1,0.5]];portConstraint=eastwest;rotatable=0;whiteSpace=wrap;html=1;" vertex="1" parent="L-TvMQkpFj6P-4dqpWRc-70">
          <mxGeometry y="120" width="140" height="30" as="geometry" />
        </mxCell>
        <mxCell id="L-TvMQkpFj6P-4dqpWRc-77" style="text;strokeColor=none;fillColor=none;align=left;verticalAlign=middle;spacingLeft=4;spacingRight=4;overflow=hidden;points=[[0,0.5],[1,0.5]];portConstraint=eastwest;rotatable=0;whiteSpace=wrap;html=1;" vertex="1" parent="L-TvMQkpFj6P-4dqpWRc-70">
          <mxGeometry y="150" width="140" height="30" as="geometry" />
        </mxCell>
        <mxCell id="L-TvMQkpFj6P-4dqpWRc-78" style="text;strokeColor=none;fillColor=none;align=left;verticalAlign=middle;spacingLeft=4;spacingRight=4;overflow=hidden;points=[[0,0.5],[1,0.5]];portConstraint=eastwest;rotatable=0;whiteSpace=wrap;html=1;" vertex="1" parent="L-TvMQkpFj6P-4dqpWRc-70">
          <mxGeometry y="180" width="140" height="30" as="geometry" />
        </mxCell>
        <mxCell id="L-TvMQkpFj6P-4dqpWRc-79" style="text;strokeColor=none;fillColor=none;align=left;verticalAlign=middle;spacingLeft=4;spacingRight=4;overflow=hidden;points=[[0,0.5],[1,0.5]];portConstraint=eastwest;rotatable=0;whiteSpace=wrap;html=1;" vertex="1" parent="L-TvMQkpFj6P-4dqpWRc-70">
          <mxGeometry y="210" width="140" height="30" as="geometry" />
        </mxCell>
        <mxCell id="L-TvMQkpFj6P-4dqpWRc-80" style="text;strokeColor=none;fillColor=none;align=left;verticalAlign=middle;spacingLeft=4;spacingRight=4;overflow=hidden;points=[[0,0.5],[1,0.5]];portConstraint=eastwest;rotatable=0;whiteSpace=wrap;html=1;" vertex="1" parent="L-TvMQkpFj6P-4dqpWRc-70">
          <mxGeometry y="240" width="140" height="30" as="geometry" />
        </mxCell>
        <mxCell id="L-TvMQkpFj6P-4dqpWRc-81" style="text;strokeColor=none;fillColor=none;align=left;verticalAlign=middle;spacingLeft=4;spacingRight=4;overflow=hidden;points=[[0,0.5],[1,0.5]];portConstraint=eastwest;rotatable=0;whiteSpace=wrap;html=1;" vertex="1" parent="L-TvMQkpFj6P-4dqpWRc-70">
          <mxGeometry y="270" width="140" height="30" as="geometry" />
        </mxCell>
        <mxCell id="L-TvMQkpFj6P-4dqpWRc-82" style="text;strokeColor=none;fillColor=none;align=left;verticalAlign=middle;spacingLeft=4;spacingRight=4;overflow=hidden;points=[[0,0.5],[1,0.5]];portConstraint=eastwest;rotatable=0;whiteSpace=wrap;html=1;" vertex="1" parent="L-TvMQkpFj6P-4dqpWRc-70">
          <mxGeometry y="300" width="140" height="30" as="geometry" />
        </mxCell>
        <mxCell id="L-TvMQkpFj6P-4dqpWRc-83" style="text;strokeColor=none;fillColor=none;align=left;verticalAlign=middle;spacingLeft=4;spacingRight=4;overflow=hidden;points=[[0,0.5],[1,0.5]];portConstraint=eastwest;rotatable=0;whiteSpace=wrap;html=1;" vertex="1" parent="L-TvMQkpFj6P-4dqpWRc-70">
          <mxGeometry y="330" width="140" height="30" as="geometry" />
        </mxCell>
        <mxCell id="L-TvMQkpFj6P-4dqpWRc-84" style="text;strokeColor=none;fillColor=none;align=left;verticalAlign=middle;spacingLeft=4;spacingRight=4;overflow=hidden;points=[[0,0.5],[1,0.5]];portConstraint=eastwest;rotatable=0;whiteSpace=wrap;html=1;" vertex="1" parent="L-TvMQkpFj6P-4dqpWRc-70">
          <mxGeometry y="360" width="140" height="30" as="geometry" />
        </mxCell>
        <mxCell id="L-TvMQkpFj6P-4dqpWRc-85" style="text;strokeColor=none;fillColor=none;align=left;verticalAlign=middle;spacingLeft=4;spacingRight=4;overflow=hidden;points=[[0,0.5],[1,0.5]];portConstraint=eastwest;rotatable=0;whiteSpace=wrap;html=1;" vertex="1" parent="L-TvMQkpFj6P-4dqpWRc-70">
          <mxGeometry y="390" width="140" height="30" as="geometry" />
        </mxCell>
        <mxCell id="L-TvMQkpFj6P-4dqpWRc-86" style="text;strokeColor=none;fillColor=none;align=left;verticalAlign=middle;spacingLeft=4;spacingRight=4;overflow=hidden;points=[[0,0.5],[1,0.5]];portConstraint=eastwest;rotatable=0;whiteSpace=wrap;html=1;" vertex="1" parent="L-TvMQkpFj6P-4dqpWRc-70">
          <mxGeometry y="420" width="140" height="30" as="geometry" />
        </mxCell>
        <mxCell id="L-TvMQkpFj6P-4dqpWRc-87" style="text;strokeColor=none;fillColor=none;align=left;verticalAlign=middle;spacingLeft=4;spacingRight=4;overflow=hidden;points=[[0,0.5],[1,0.5]];portConstraint=eastwest;rotatable=0;whiteSpace=wrap;html=1;" vertex="1" parent="L-TvMQkpFj6P-4dqpWRc-70">
          <mxGeometry y="450" width="140" height="30" as="geometry" />
        </mxCell>
        <mxCell id="L-TvMQkpFj6P-4dqpWRc-88" style="text;strokeColor=none;fillColor=none;align=left;verticalAlign=middle;spacingLeft=4;spacingRight=4;overflow=hidden;points=[[0,0.5],[1,0.5]];portConstraint=eastwest;rotatable=0;whiteSpace=wrap;html=1;" vertex="1" parent="L-TvMQkpFj6P-4dqpWRc-70">
          <mxGeometry y="480" width="140" height="30" as="geometry" />
        </mxCell>
        <mxCell id="L-TvMQkpFj6P-4dqpWRc-89" style="text;strokeColor=none;fillColor=none;align=left;verticalAlign=middle;spacingLeft=4;spacingRight=4;overflow=hidden;points=[[0,0.5],[1,0.5]];portConstraint=eastwest;rotatable=0;whiteSpace=wrap;html=1;" vertex="1" parent="L-TvMQkpFj6P-4dqpWRc-70">
          <mxGeometry y="510" width="140" height="30" as="geometry" />
        </mxCell>
      </root>
    </mxGraphModel>
  </diagram>
</mxfile>
